<svg id="Layer_1" data-name="Layer 1" xmlns="http://www.w3.org/2000/svg" viewBox="0 0 792 612"><defs><style>.cls-1{fill:#fff;}</style></defs><title>LogoAGN</title><path class="cls-1" d="M65.34,112.66v356.1H726.66V112.66Zm583.58,84.8a26.82,26.82,0,0,1,9.8-9.31,25.92,25.92,0,0,1,12.93-3.44,24.36,24.36,0,0,1,9.19,1.83,27.21,27.21,0,0,1,8.14,5.14,24.33,24.33,0,0,1,5.71,8.09,24.76,24.76,0,0,1,2.15,10.36,25.1,25.1,0,0,1-3.41,12.78,25.35,25.35,0,0,1-9.44,9.45,26.77,26.77,0,0,1-13.69,3.51,23.81,23.81,0,0,1-10.54-2.29,24.28,24.28,0,0,1-8-6.18,27.15,27.15,0,0,1-4.91-8.34,25.49,25.49,0,0,1-1.64-8.77A23.78,23.78,0,0,1,648.92,197.46ZM590.1,185.28l3.09.09,6.26.22c.58,0,1.12,0,1.6,0h2.18l3.81.05.07,1.24a28,28,0,0,0-4.13.45.94.94,0,0,0-.78,1,19.76,19.76,0,0,0,1.6,5c1,2.65,2.36,5.69,3.88,9.14s2.65,5.95,3.36,7.46l5.35,11.51,1.07,2.16c.72,1.48,1.24,2.58,1.56,3.28.88-1.51,1.9-3.49,3.1-5.93s2.31-4.79,3.37-7,1.62-3.52,1.73-3.75l5-11c.73-1.6,1.47-3.35,2.19-5.25a13.6,13.6,0,0,0,1.11-4.06c0-1.69-1.41-2.66-4.21-2.87l.23-1.57c2.91.27,5.95.38,9,.38l2.18-.07h2.39v1.07a13.3,13.3,0,0,0-3.76,1.83,10.33,10.33,0,0,0-2.52,3.09c-.85,1.43-2.27,4.2-4.31,8.33l-8.58,17.11c-1.63,3.15-3.22,6.64-4.82,10.39a36.85,36.85,0,0,0-2.76,8.4l-1.2.15a47.23,47.23,0,0,0-1.94-4.76l-2.6-5.73c-.79-2-1.86-4.45-3.21-7.25L603,204.71q-7.1-14.78-8.52-16.33a4.32,4.32,0,0,0-1.87-1.33,10.41,10.41,0,0,0-2.66-.4Zm-16,8.59a15.35,15.35,0,0,0-.6-4.26,3.3,3.3,0,0,0-2.15-1.88,16,16,0,0,0-5.17-.66v-1.64c2.89.14,4.66.26,5.39.31,2.59.11,4.33.16,5.22.16.31,0,1.63,0,4-.16l6.6-.31v1.8a18.13,18.13,0,0,0-4.59.36A3,3,0,0,0,581,189c-.85,1.59-1.27,7.74-1.27,18.37,0,7.32,0,12,0,13.94s.06,4,.12,6.24a17.41,17.41,0,0,0,.44,3.79A2.72,2.72,0,0,0,582.2,233a16,16,0,0,0,4.92.6l-.15,1.44c-.36,0-1,0-2.11-.06l-3.29-.09-2.62-.06-2.11,0-2.81,0-3,.06c-1.25,0-2.36.06-3.37.09l-1.8.06-.09-1.44a16.45,16.45,0,0,0,5.57-1,3.77,3.77,0,0,0,2-2.32,28.77,28.77,0,0,0,1-7.81q.23-5.73.22-12.1Q574.52,204.67,574.15,193.87Zm-62.52-3.06a4.26,4.26,0,0,0-1.52-3,7.59,7.59,0,0,0-3.63-.8l.09-1.26a24.13,24.13,0,0,1,3.85-.38c.36,0,1.68.05,4,.16,1.74.14,3.12.22,4.09.22l5.55-.08a11.78,11.78,0,0,0,.06,1.34l-2,.3a9.23,9.23,0,0,0-2.59.64,2.38,2.38,0,0,0-1,1.55,38.91,38.91,0,0,0-.71,4.76,78.69,78.69,0,0,0-.38,8.13c0,2.61,0,4.62.08,6.1H535.5q10.36,0,12.79,0a18.68,18.68,0,0,0,3.55-.27l.1-8q0-6.58-.13-8.23a7.87,7.87,0,0,0-.56-2.56,2.65,2.65,0,0,0-1.37-1.67,24.69,24.69,0,0,0-4.07-1.1l.19-1.44c1.2.15,2.36.29,3.53.41a45.75,45.75,0,0,0,5,.23c.46,0,1.77,0,4-.15s3.57-.14,3.85-.14l.14,1.06a4.31,4.31,0,0,0-.71.23,6.33,6.33,0,0,0-2.37,1,3.34,3.34,0,0,0-1.16,1.92,15.75,15.75,0,0,0-.49,3c-.06,1.13-.15,3.85-.26,8.18l-.35,17.59a86.06,86.06,0,0,0,.18,10.44q.34,3.16,1.45,4.1a6.86,6.86,0,0,0,3.8,1.27l-.09,1.14a23,23,0,0,0-3.69-.46c-.82,0-1.88-.07-3.21-.07-.46,0-2,0-4.59.16-2.06.15-3.65.23-4.76.23l-.16-1.34a8.92,8.92,0,0,0,3.68-1,3.56,3.56,0,0,0,1.39-2.34,32.41,32.41,0,0,0,.47-5.54l.22-8.65-.06-5-4.24-.19-21.81-.15-8.28.08c-.14,3-.22,7.41-.22,13.32,0,3.68.14,6,.44,6.87a2.79,2.79,0,0,0,.68,1.22,4.09,4.09,0,0,0,1.59.89,22.13,22.13,0,0,0,3.4.87l-.08,1.22c-.52,0-1.46-.08-2.8-.19l-3.88-.24c-1.25-.07-2.36-.11-3.36-.11-1.61,0-4,.13-7.1.39l-.53-1.45c2.69-.3,4.33-.87,4.93-1.64.42-.61.76-3.42,1-8.47s.39-9.35.39-13l.07-12.59A53,53,0,0,0,511.63,190.81ZM505,290.7c.65.06,1.31.09,2,.09h1.68l4.85-.09.09,1.31a7.47,7.47,0,0,0-3.28,1.07,3.9,3.9,0,0,0-1.42,2.39,82.47,82.47,0,0,0-1,12.26q-.28,9.12-.28,17.38c0,2.15,0,4.22.07,6.22s.06,3.77.11,5.35.13,3,.23,4.38L506.5,341q-2.65-5.7-15.88-18L476.3,309.6c-.46-.35-1.65-1.41-3.51-3.17s-4.26-3.95-7.09-6.6l-.5,23.38a57.25,57.25,0,0,0,.3,10.09c.34,1.9,1.05,3.19,2.18,3.82a24.75,24.75,0,0,0,6.37,1.85,5.4,5.4,0,0,1-.16,1.44c-.39,0-1.62,0-3.66-.14s-3.35-.16-3.77-.16-1.82.06-4.21.16l-1.64.09c-.67.06-1.56.14-2.66.2a1.17,1.17,0,0,1-.78-.2.86.86,0,0,1-.27-.71c0-.38.08-.61.2-.69a2.45,2.45,0,0,1,.85-.2,7,7,0,0,0,2.42-.61,3,3,0,0,0,1.2-1.59,15.07,15.07,0,0,0,.66-3.76c.14-1.73.21-3.93.24-6.62l.27-18.22a81.19,81.19,0,0,0-.23-8.89,9.08,9.08,0,0,0-1.71-4.7c-1-1.2-2.56-1.92-4.81-2.17v-1.57c2.3.17,3.76.26,4.4.28s1.37,0,2.24,0l3.28-.07q2.29,2.91,5.38,6.15t6.93,7c2.57,2.48,4,3.89,4.34,4.22l22.53,21.38q.3-4.76.29-14.47v-7.37q0-5.88-.28-8.86a11.42,11.42,0,0,0-1.08-4.41,4.11,4.11,0,0,0-2.11-1.87,25.94,25.94,0,0,0-4.36-1l.44-1.07a16.66,16.66,0,0,1,1.85-.07c.79,0,1.59,0,2.38,0S503.94,290.61,505,290.7Zm-42-94.85a24.66,24.66,0,0,1,10.46-8.43,33.33,33.33,0,0,1,13.11-2.71,28.4,28.4,0,0,1,10.23,1.88,12.64,12.64,0,0,0,3.44.72,7.06,7.06,0,0,0,.77-.16c.19,0,.38,0,.63-.06a.72.72,0,0,1,.5.3l-.56,2.18a56.69,56.69,0,0,0-1.41,7.28,1.22,1.22,0,0,1-.92-.47,2.28,2.28,0,0,1-.22-1.17,7.18,7.18,0,0,0-.65-3.27q-1-1.69-5.15-3.45a21,21,0,0,0-8.29-1.76,18.29,18.29,0,0,0-17,10.73,27.84,27.84,0,0,0-2.58,12.36,25.75,25.75,0,0,0,2.26,11.26,21.08,21.08,0,0,0,5.68,7.46,23.55,23.55,0,0,0,6.95,4,19.46,19.46,0,0,0,6.13,1.22,14.94,14.94,0,0,0,6.83-1.36,12.81,12.81,0,0,0,4.27-3.23,31.64,31.64,0,0,0,3-4.53q.56-1.12,1-1.13c.49,0,.73.23.73.7a18.24,18.24,0,0,1-.73,3.06c-.13.33-.68,2.2-1.66,5.65-2.73.82-5.22,1.43-7.46,1.88a37.59,37.59,0,0,1-7.31.67,28.07,28.07,0,0,1-9.46-1.68,25.8,25.8,0,0,1-8.51-5,24.29,24.29,0,0,1-6-8,25.52,25.52,0,0,1-2.21-10.84A23.51,23.51,0,0,1,463,195.85Zm-45.43-1.74a14.86,14.86,0,0,0-.65-4.26,3,3,0,0,0-1.5-1.81,12.9,12.9,0,0,0-3.26-.74l.16-1.26c1.35.06,3.06.09,5.15.09.61,0,2.82-.16,6.67-.48s6.24-.48,7.26-.48a21.77,21.77,0,0,1,7.23,1.11,16.21,16.21,0,0,1,5.36,2.93,12.52,12.52,0,0,1,3.27,4.2,11.1,11.1,0,0,1,1.1,4.82,11.56,11.56,0,0,1-1.14,5,13.41,13.41,0,0,1-3.46,4.38,20.3,20.3,0,0,1-6,3.34l1.73,2.6q3.58,5.43,6,8.75a80,80,0,0,0,5.09,6.45,30.08,30.08,0,0,0,5.58,5,11.61,11.61,0,0,0,5.55,2.15.73.73,0,0,1,.71.78.52.52,0,0,1-.34.49,4.65,4.65,0,0,1-1.66.18,16.77,16.77,0,0,1-7.14-1.61,27.62,27.62,0,0,1-6.5-4.39,44.59,44.59,0,0,1-5.51-5.77c-1.6-2-3.49-4.57-5.69-7.67l-4.39-6.26a59.54,59.54,0,0,1-8.36-.49l-.09,9.16c0,1.93.06,4.1.17,6.48a16.45,16.45,0,0,0,.79,5.09,2.08,2.08,0,0,0,1,1.3,22.67,22.67,0,0,0,3.33,1.06c.57.14.85.33.85.61,0,.57-.19.85-.53.85s-1.5-.14-3.22-.38c-2.18-.21-3.53-.32-4-.32a57.44,57.44,0,0,0-7.65.54,2.81,2.81,0,0,0-.64.09c-.52,0-.77-.23-.77-.7a.63.63,0,0,1,.29-.57,5.19,5.19,0,0,1,1.27-.46,4.51,4.51,0,0,0,2.48-1.39,7.66,7.66,0,0,0,1.12-3.65,79.5,79.5,0,0,0,.38-8.78V203.19C417.65,199.06,417.65,196,417.55,194.11Zm-74.67,39.44a9.81,9.81,0,0,0,4.74-2.43c.84-.71,1.93-2.42,3.29-5.14s2.73-5.63,4.13-8.82,2.41-5.67,3-7.46L366.32,190q1.56-3.58,3.17-7.45c1.09-2.6,2.11-5.21,3.07-7.83s1.68-4.73,2.12-6.29a1.36,1.36,0,0,1,.32-1l1.7-.09q1.6,5.73,3.52,11l10.82,29c2.77,7.28,4.88,12.63,6.31,16.08a40.09,40.09,0,0,0,3.73,7.4c.9,1.27,2.74,2.06,5.52,2.32v1.81c-2.83-.27-5.54-.42-8.15-.42-2.07,0-4,.06-5.76.17s-3.17.21-4.19.28-1.82.16-2.34.19v-1.71a14.84,14.84,0,0,0,3.79-1.08,2.33,2.33,0,0,0,1.42-2.28,15.86,15.86,0,0,0-.92-4.34c-.63-1.88-1.08-3.19-1.38-3.92l-3.83-10.36a79,79,0,0,0-9.78-.42H371.4a54.19,54.19,0,0,0-10.81.62l-3.8,9.55c-1.67,4-2.51,6.49-2.51,7.48a3.68,3.68,0,0,0,1.64,3c1.08.8,3.3,1.44,6.62,1.92v1.71a87,87,0,0,0-10.26-.73q-4.33,0-9.39.41ZM307.76,445.82H87.32v-311H307.76ZM361.27,422a9.62,9.62,0,0,1-1.86,3.13,9.43,9.43,0,0,1-2.42,2,13.55,13.55,0,0,1-3.74,1.15,24.13,24.13,0,0,1-3.73.19q-1.78,0-2.89-.11a6.43,6.43,0,0,0-.94-.06l-.17,0-6.42.12,0-.12a.42.42,0,0,1,0-.17l0-.24a4.66,4.66,0,0,1,1.35-.33,3.4,3.4,0,0,0,1.66-.53,13.16,13.16,0,0,0,.43-4.41V420.1l0-1.49,0-1.1,0-2,0-5.11a1.75,1.75,0,0,0-.25-1.13,4.16,4.16,0,0,0-1.92-.73,2.4,2.4,0,0,1-.79-.25.68.68,0,0,1-.17-.45,2.56,2.56,0,0,1,.5-.08H341l.58,0a7.59,7.59,0,0,1,1.29.12c1,.07,2,.1,3,.1q.44,0,1.26-.05,2.17-.12,3.11-.12a16.25,16.25,0,0,1,3.59.38,12.55,12.55,0,0,1,3.48,1.4,9,9,0,0,1,2.29,2,10.15,10.15,0,0,1,1.78,3,10.73,10.73,0,0,1,.61,3.7A10.42,10.42,0,0,1,361.27,422Zm22.1,3.08a18.1,18.1,0,0,0-.2,2.25,1.41,1.41,0,0,1-.25.86h-.35l-4.41,0h-2l-4.71.06h-1.92l-.68,0c-1.89.09-3.28.12-4.17.12a.53.53,0,0,1-.33-.07.29.29,0,0,1-.08-.23v-.16a.88.88,0,0,1,.27-.17,5.44,5.44,0,0,1,.91-.12,6.37,6.37,0,0,0,1.89-.28,1.56,1.56,0,0,0,.22-.89l0-1.11,0-4,0-1.89v-4l-.08-4.49a4.38,4.38,0,0,0-.21-1.81c-.19-.21-.75-.32-1.68-.35a6.75,6.75,0,0,1-1.05-.09.32.32,0,0,1-.2-.29.82.82,0,0,1,.08-.3.59.59,0,0,1,.25-.08h.53a19.11,19.11,0,0,0,1.92.09l1.17,0,2.77.07q2.08,0,3.24-.05l1.57,0,1.8.06,2.23,0,.27.05,1.31-.05.15.09a.8.8,0,0,1,.11.27,5.3,5.3,0,0,1-.07.67c0,.3-.07.49-.07.57q0,1.63.11,2.77a.14.14,0,0,1-.09.12,1,1,0,0,1-.31,0,8.36,8.36,0,0,1-.46-1.05,13,13,0,0,0-.87-1.75,2.45,2.45,0,0,0-.62-.78,2.15,2.15,0,0,0-.91-.13l-1.43,0h-.68l-4.48.09h-.39c-.58,0-.93.08-1,.22a5.11,5.11,0,0,0-.27,2.21q0,.19.08,3.77v2.19a1.33,1.33,0,0,0,.37,0h.27l.78,0,1.1,0,.33,0c1.13,0,2.59-.07,4.37-.07.55-.09.88-.2,1-.33a3.28,3.28,0,0,0,.36-1.48c.07-.79.25-1.25.52-1.35a.93.93,0,0,1,.37.07.91.91,0,0,1,0,.24,3,3,0,0,1,0,.37c0,.39-.08,1.6-.08,3.65,0,.54,0,1.15.08,1.82s.09,1,.09,1.09a2.16,2.16,0,0,1,0,.38.48.48,0,0,1-.21.06h-.11a5.84,5.84,0,0,1-.49-1.37,4.43,4.43,0,0,0-.86-2,2.17,2.17,0,0,0-1.46-.4l-.8,0c-.39,0-1,0-1.73,0h-1a26.13,26.13,0,0,0-2.86.1l0,.52,0,2.9,0,1.83,0,1.78a4.75,4.75,0,0,0,.21,1.86c.18.23.56.34,1.16.34l1,0,1,0c.57,0,1.28,0,2.12,0a19.62,19.62,0,0,0,4-.26,3.47,3.47,0,0,0,1.66-.92,10.84,10.84,0,0,0,1.64-2.86c.2-.43.4-.65.6-.65a.57.57,0,0,1,.31.13A17.59,17.59,0,0,0,383.37,425Zm4.36-84.9c-2.58.32-4.62.53-6.17.61s-3.37.14-5.47.14a43.11,43.11,0,0,1-16.59-2.94,32.3,32.3,0,0,1-18.35-18.87A35.2,35.2,0,0,1,339,307.14a31.94,31.94,0,0,1,12-25.4,38.75,38.75,0,0,1,12.68-6.68,47.43,47.43,0,0,1,14.55-2.25,37.71,37.71,0,0,1,5.43.37c1.75.23,3.26.5,4.58.8s2.12.5,2.5.63a9.66,9.66,0,0,0,2.9,1c1.83-1.54,2.86-2.32,3.14-2.32.5,0,.73.67.73,2a57.12,57.12,0,0,0,.69,6.4,58.59,58.59,0,0,1,.71,6.7c0,.53-.21.76-.62.76s-.52,0-.59-.14a5.86,5.86,0,0,1-.49-1,20.93,20.93,0,0,0-7.15-8.33q-5.23-3.91-14.24-3.89A27,27,0,0,0,360.73,280a28.32,28.32,0,0,0-10.08,11.33,31.47,31.47,0,0,0-1.54,25.4,35.57,35.57,0,0,0,6,10.58,30,30,0,0,0,9.84,7.9,27.81,27.81,0,0,0,12.76,2.95,26.6,26.6,0,0,0,10-1.66c2.73-1.1,4.52-2.16,5.34-3.2a4.27,4.27,0,0,0,.71-2.27c.11-1,.16-3.68.16-8a52.58,52.58,0,0,0-.49-8.77,4.19,4.19,0,0,0-2.35-3.3c-1.24-.57-3.43-.82-6.6-.82a20.85,20.85,0,0,0-3.24.21l.22-2.2c4.75-.06,9.14-.12,13.21-.19s7.6-.28,10.54-.55v2a14.1,14.1,0,0,0-2.54,1,2.7,2.7,0,0,0-1,1.41,7.58,7.58,0,0,0-.33,1.8c0,.77-.1,1.9-.14,3.4s0,4.33,0,8.48c0,3,.07,5.24.21,6.53a7.67,7.67,0,0,0,.64,2.72,7.4,7.4,0,0,0,1.47,1.61l-.51,1.18c-.55,0-3,.47-7.17,1.35C393,339.38,390.3,339.81,387.73,340.13Zm26,88.12-5.88-.17q-7.58,0-9,.15c-.29,0-.6,0-.92,0h-1.64a.91.91,0,0,1,.13-.42,14.29,14.29,0,0,1,2.39-.44,1.43,1.43,0,0,0,1-.35,4.2,4.2,0,0,0,.19-1.51l.11-4.15,0-2.81,0-3.69v-1c0-2.22,0-3.59,0-4.14a1.8,1.8,0,0,0-.12-.45,4.14,4.14,0,0,0-.68-.25l-2.47-.45a2,2,0,0,1,0-.26,1.7,1.7,0,0,1,0-.25l1,0,2.39.09,1.39,0H402l.45,0c.62,0,1,0,1.08,0l1.26-.09c.85,0,1.45,0,1.79,0a2.75,2.75,0,0,1-.11.62c-.12,0-.66,0-1.63.08a6.07,6.07,0,0,0-1.68.19q-.36.2-.36,1.25c0,.17,0,.51,0,1v.94l0,2.91v1l0,5.21,0,4.43,0,1c0,.32,0,.51.15.58.26,0,1,0,2.31,0h1.07l2.72-.09a4.83,4.83,0,0,0,1.53-.21,7.07,7.07,0,0,0,1.53-1.06,5.32,5.32,0,0,0,1-1.17,4.11,4.11,0,0,1,.27-.38,8.87,8.87,0,0,0,.8-1.64h.52c-.06.38-.13.73-.21,1.07-.3,1.48-.51,2.71-.62,3.7C413.8,427.88,413.78,428.08,413.75,428.26Zm22.34-.11-.7,0-2.83,0-1.57,0-1.91,0-.39,0-.34,0H428a.81.81,0,0,1-.31-.09,1.27,1.27,0,0,1,.08-.43,1.11,1.11,0,0,1,.35-.11l1.65-.11a3.16,3.16,0,0,0,1-.17,1.45,1.45,0,0,0,.09-.43,6.81,6.81,0,0,0-.41-1.46c-.19-.52-.35-1-.5-1.49s-.7-2-1.67-4.67a6.75,6.75,0,0,0-1.13-.11l-3.36,0-1,0a9,9,0,0,0-1.19.08c-.13.31-.22.54-.26.67l-1.38,4.33a21.86,21.86,0,0,0-.88,2.72,1.49,1.49,0,0,0,.14.47,6,6,0,0,0,.88.17l2.14.19c.12.1.17.18.17.25a.79.79,0,0,1,0,.23l-1.09,0c-.84,0-1.82,0-2.92-.08-.51,0-.88,0-1.1,0s-.6,0-1.14,0l-.77,0c-.25,0-.57,0-1,0V428a1,1,0,0,1,.06-.29.82.82,0,0,1,.39-.13h.74a6.3,6.3,0,0,0,1.43-.22,2.36,2.36,0,0,0,.94-1,37.4,37.4,0,0,0,1.84-4.54c.32-.92.53-1.5.62-1.7.26-.63.51-1.29.76-2l1.48-4.14c.23-.65.79-2.14,1.67-4.47q.33-.88.8-2.36l.46,0h.55a22.68,22.68,0,0,1,1.2,2.88q.28.82.92,2.44l2.39,6.46,1.27,3.5c.67,2,1.11,3.22,1.32,3.67a2.56,2.56,0,0,0,.58.9,2.13,2.13,0,0,0,.59.19l.71.19a7.21,7.21,0,0,1,1,.34,1,1,0,0,1,.06.27A.87.87,0,0,1,436.1,428.15Zm-1-87.94c-1.82-.06-2.59-.09-2.34-.09-1.67,0-3.57,0-5.79.07s-4.86.09-8,.19-5.38.2-6.83.28l.08-1.3c.78-.18,1.59-.37,2.41-.59a4.7,4.7,0,0,0,1.68-.7,2.49,2.49,0,0,0,.65-.94,15.08,15.08,0,0,0,.37-2c.15-1,.3-2.7.44-5.25s.25-5.37.36-8.54.1-5.12.08-5.91L418,303.27a69.79,69.79,0,0,0-.44-7.63,3.88,3.88,0,0,0-1.25-2.64,9.5,9.5,0,0,0-3.47-1.13,3.78,3.78,0,0,1,.09-1h24.45c2.76,0,6.91-.1,12.46-.3-.14,2.18-.36,4.39-.69,6.57s-.76,3.28-1.28,3.28-.94-.19-.94-.57c0-.16,0-.63.15-1.45s.16-1.28.16-1.41c0-1.87-1.11-3-3.36-3.56a35.66,35.66,0,0,0-8-.76,93,93,0,0,0-11.71.76,99.56,99.56,0,0,0-.69,10.64c0,1.9,0,4.06,0,6.5s0,3.59,0,3.44c.62.05,2.48.08,5.64.08,5.38,0,9.06-.1,11.08-.31a8.63,8.63,0,0,0,2.3-.47,2.63,2.63,0,0,0,1.16-1.36,24.24,24.24,0,0,0,1.18-3.33l1.11.07c0,2.65,0,5,0,7.11s0,4.48,0,7.18h-1.34a9.92,9.92,0,0,0-1-4.88c-.61-.91-1.82-1.5-3.61-1.76a79,79,0,0,0-9.51-.37,48,48,0,0,0-6.88.37l-.14,5.42a81,81,0,0,0,.68,15.31c.46.13,1,.28,1.63.42a13.78,13.78,0,0,0,1.83.36,22.72,22.72,0,0,0,2.46.27c1.07.08,2.38.14,4,.14a39.23,39.23,0,0,0,9.41-.88,10.65,10.65,0,0,0,5.22-2.82,16.12,16.12,0,0,0,3.11-5.62h1.19a58.49,58.49,0,0,1-1.35,6.59,30.12,30.12,0,0,1-1.86,5c-.84-.09-2-.14-3.45-.17s-3.48-.06-6.11-.06C438.6,340.27,436.92,340.24,435.12,340.2Zm61.95,40.38a4,4,0,0,0-1.41,2.4,81.5,81.5,0,0,0-1,12.22q-.28,9.11-.28,17.32,0,3.23.05,6.22c0,2,.08,3.75.14,5.32s.12,3,.22,4.38l-1.56-.08q-2.62-5.67-15.83-18l-14.28-13.32c-.49-.36-1.65-1.41-3.53-3.16s-4.21-3.95-7.05-6.59l-.49,23.31a58.4,58.4,0,0,0,.3,10.05c.33,1.92,1,3.18,2.17,3.8a24.34,24.34,0,0,0,6.36,1.85,6.93,6.93,0,0,1-.14,1.45c-.42,0-1.63-.05-3.66-.16s-3.35-.15-3.78-.15-1.8,0-4.18.15c-.4,0-1,.06-1.64.12l-2.66.19a1.24,1.24,0,0,1-.78-.21.88.88,0,0,1-.25-.71c0-.37.06-.61.2-.69a2.15,2.15,0,0,1,.83-.18,7,7,0,0,0,2.41-.63,2.86,2.86,0,0,0,1.21-1.59,15.16,15.16,0,0,0,.67-3.75c.14-1.71.21-3.92.25-6.61l.27-18.16a83.71,83.71,0,0,0-.24-8.86,8.79,8.79,0,0,0-1.71-4.69c-.94-1.2-2.53-1.91-4.79-2.17v-1.56c2.28.16,3.75.24,4.38.28a22.33,22.33,0,0,0,2.25,0l3.28-.07q2.28,2.9,5.36,6.13t6.91,6.95c2.54,2.47,4,3.87,4.31,4.2L491.84,417c.2-3.17.3-8,.3-14.42V395.2c0-3.9-.08-6.84-.27-8.82a11.61,11.61,0,0,0-1.09-4.38,4,4,0,0,0-2.1-1.88,26.07,26.07,0,0,0-4.33-1l.41-1.06a15.82,15.82,0,0,1,1.87-.07c.78,0,1.56,0,2.35,0s1.72.09,2.79.19c.62.05,1.29.09,2,.09h1.68l4.82-.09.09,1.3A7.68,7.68,0,0,0,497.07,380.58Zm42.32,46.84c-1.56-.15-3-.23-4.47-.23-1.13,0-2.19,0-3.16.08l-2.29.15c-.58.05-1,.07-1.28.11v-.95a8.14,8.14,0,0,0,2.08-.58,1.3,1.3,0,0,0,.78-1.25,8.08,8.08,0,0,0-.52-2.38c-.33-1-.59-1.75-.76-2.15l-2.08-5.69a46.68,46.68,0,0,0-5.36-.22h-2.25a28.21,28.21,0,0,0-5.92.34l-2.08,5.23a15.83,15.83,0,0,0-1.38,4.1,2,2,0,0,0,.89,1.65,8.68,8.68,0,0,0,3.63,1.07v.93a50,50,0,0,0-5.63-.4c-1.58,0-3.29.08-5.15.24v-.83a5.47,5.47,0,0,0,2.61-1.33,10.59,10.59,0,0,0,1.8-2.82c.75-1.49,1.5-3.1,2.26-4.84s1.32-3.11,1.66-4.09l4.52-10.83c.57-1.3,1.14-2.66,1.74-4.08s1.16-2.87,1.68-4.29.93-2.59,1.17-3.46a.79.79,0,0,1,.17-.54l.94-.05c.59,2.09,1.23,4.11,1.92,6l5.94,15.93c1.53,4,2.67,6.92,3.47,8.81a19.94,19.94,0,0,0,2,4.06,4,4,0,0,0,3,1.28Zm0-87.22c-1.79-.06-2.57-.09-2.32-.09q-2.49,0-5.77.07c-2.22,0-4.86.09-8,.19s-5.39.2-6.85.28l.09-1.3c.77-.18,1.59-.37,2.41-.59a5.12,5.12,0,0,0,1.69-.7,2.33,2.33,0,0,0,.63-.94,13.22,13.22,0,0,0,.38-2c.16-1,.29-2.7.45-5.25s.25-5.37.33-8.54.14-5.12.09-5.91l-.26-12.15a72.09,72.09,0,0,0-.43-7.63,4,4,0,0,0-1.24-2.64,9.78,9.78,0,0,0-3.49-1.13,6.09,6.09,0,0,1,.07-1h24.48c2.75,0,6.89-.1,12.46-.3-.14,2.18-.37,4.39-.69,6.57s-.76,3.28-1.27,3.28-.95-.19-.95-.57c0-.16,0-.63.14-1.45s.15-1.28.15-1.41c0-1.87-1.12-3-3.34-3.56a36.07,36.07,0,0,0-8-.76,93.17,93.17,0,0,0-11.73.76,102.54,102.54,0,0,0-.69,10.64c0,1.9,0,4.06,0,6.5s0,3.59,0,3.44c.61.05,2.49.08,5.62.08q8.09,0,11.11-.31a9.22,9.22,0,0,0,2.3-.47,2.57,2.57,0,0,0,1.12-1.36,20.94,20.94,0,0,0,1.19-3.33l1.11.07c0,2.65,0,5,0,7.11s0,4.48-.06,7.18h-1.33c-.07-2.33-.43-4-1-4.88a5.05,5.05,0,0,0-3.61-1.76,78.93,78.93,0,0,0-9.52-.37,47.72,47.72,0,0,0-6.86.37l-.16,5.42a80.66,80.66,0,0,0,.69,15.31c.45.13,1,.28,1.64.42a13.28,13.28,0,0,0,1.81.36,22.43,22.43,0,0,0,2.46.27c1.07.08,2.4.14,4,.14a39.12,39.12,0,0,0,9.39-.88,10.62,10.62,0,0,0,5.23-2.82,15.87,15.87,0,0,0,3.1-5.62h1.2a63.26,63.26,0,0,1-1.35,6.59,29.18,29.18,0,0,1-1.88,5c-.82-.09-2-.14-3.43-.17s-3.49-.06-6.1-.06C542.92,340.27,541.23,340.24,539.41,340.2Zm37.91,81.53q-.15.36-1.21,4.18c-2,.61-3.89,1.08-5.53,1.4a28,28,0,0,1-5.41.5,20.72,20.72,0,0,1-7-1.25,19.25,19.25,0,0,1-6.29-3.68,17.59,17.59,0,0,1-4.44-6,18.68,18.68,0,0,1-1.65-8,17.45,17.45,0,0,1,3-10.42,18.05,18.05,0,0,1,7.76-6.25,24.25,24.25,0,0,1,9.71-2,21.18,21.18,0,0,1,7.59,1.38,9.72,9.72,0,0,0,2.54.54c.27-.06.47-.11.58-.12l.46-.05a.48.48,0,0,1,.37.23l-.42,1.61a37.75,37.75,0,0,0-1,5.41.93.93,0,0,1-.69-.36,1.68,1.68,0,0,1-.17-.87,5,5,0,0,0-.49-2.43c-.5-.83-1.77-1.68-3.82-2.54a15.44,15.44,0,0,0-6.13-1.3,13.52,13.52,0,0,0-12.58,8,20.66,20.66,0,0,0-1.9,9.16,19.16,19.16,0,0,0,1.67,8.33,15.75,15.75,0,0,0,4.22,5.53,17.32,17.32,0,0,0,5.15,2.93,14.29,14.29,0,0,0,4.54.92,11.33,11.33,0,0,0,5.06-1,9.51,9.51,0,0,0,3.16-2.41,21.52,21.52,0,0,0,2.21-3.35c.29-.54.53-.82.74-.82a.47.47,0,0,1,.54.52A14.81,14.81,0,0,1,577.32,421.73Zm24.8-29.64a13.27,13.27,0,0,0-3.39.27,2.2,2.2,0,0,0-1.36,1.06c-.62,1.18-.93,5.74-.93,13.62,0,5.43,0,8.88,0,10.32s0,3,.08,4.62a11.55,11.55,0,0,0,.32,2.8,2,2,0,0,0,1.37,1.24,11.64,11.64,0,0,0,3.65.43l-.11,1.09-1.57-.05c-.79,0-1.59-.05-2.43-.07l-1.94,0c-.45,0-1,0-1.56,0-.83,0-1.52,0-2.07,0l-2.22,0c-.92,0-1.76,0-2.5.07l-1.34.05-.06-1.09a11.93,11.93,0,0,0,4.13-.7,2.89,2.89,0,0,0,1.46-1.72,21.66,21.66,0,0,0,.72-5.79c.11-2.83.15-5.82.15-9,0-2.85-.09-6.93-.28-12.28a11.18,11.18,0,0,0-.43-3.15,2.53,2.53,0,0,0-1.58-1.4,12.77,12.77,0,0,0-3.84-.47v-1.21c2.13.1,3.46.18,4,.22,1.92.07,3.21.1,3.87.1l3-.1,4.89-.22Zm8.13-49.73a4.84,4.84,0,0,1-1.64.17,16.55,16.55,0,0,1-7.14-1.62,27.68,27.68,0,0,1-6.53-4.38,46.91,46.91,0,0,1-5.5-5.75c-1.59-2-3.51-4.57-5.69-7.68l-4.39-6.26a58.34,58.34,0,0,1-8.36-.49l-.08,9.16c0,1.93.07,4.09.18,6.5a17.45,17.45,0,0,0,.78,5.07,2.23,2.23,0,0,0,1.06,1.31,19.62,19.62,0,0,0,3.33,1.06c.56.12.84.33.84.61,0,.56-.18.85-.53.85s-1.47-.13-3.21-.38c-2.19-.22-3.53-.3-4-.3a57.7,57.7,0,0,0-7.63.51,3.56,3.56,0,0,0-.65.09c-.52,0-.76-.24-.76-.7a.63.63,0,0,1,.28-.56,5.2,5.2,0,0,1,1.28-.47,4.63,4.63,0,0,0,2.48-1.39,7.65,7.65,0,0,0,1.11-3.67c.22-1.82.36-4.75.39-8.76V308.38c0-4.11,0-7.15-.06-9.08a15,15,0,0,0-.63-4.26,3,3,0,0,0-1.53-1.81,12.2,12.2,0,0,0-3.25-.73l.16-1.27c1.35.06,3.06.07,5.14.07.63,0,2.85-.14,6.68-.47s6.26-.47,7.27-.47a21.55,21.55,0,0,1,7.2,1.12,16,16,0,0,1,5.38,2.93,12.39,12.39,0,0,1,3.25,4.17,11,11,0,0,1,1.12,4.83,11.4,11.4,0,0,1-1.15,5,12.77,12.77,0,0,1-3.47,4.38,20.19,20.19,0,0,1-6,3.34l1.72,2.59q3.59,5.44,6,8.78c1.58,2.22,3.28,4.36,5.08,6.42a30,30,0,0,0,5.58,5,11.59,11.59,0,0,0,5.56,2.16.72.72,0,0,1,.72.77A.59.59,0,0,1,610.24,342.36Zm37,76.16a18.68,18.68,0,0,1-7,7,19.77,19.77,0,0,1-10.15,2.59,17.56,17.56,0,0,1-7.79-1.68,18,18,0,0,1-5.93-4.59,20.41,20.41,0,0,1-3.66-6.17,19.13,19.13,0,0,1-1.2-6.5,17.59,17.59,0,0,1,2.73-9.49,19.91,19.91,0,0,1,7.26-6.9,19.3,19.3,0,0,1,9.59-2.55,18.17,18.17,0,0,1,6.81,1.35,19.29,19.29,0,0,1,6,3.8,18.25,18.25,0,0,1,4.24,6,19.2,19.2,0,0,1-.93,17.14ZM627,388.33l5.57-10.08h3.94l-8.16,10.08Zm22-48.41c-1.3.08-2.34.14-3.11.21l-1.72.14V339a11.66,11.66,0,0,0,2.8-.8,1.74,1.74,0,0,0,1-1.69,11.36,11.36,0,0,0-.68-3.19c-.46-1.41-.8-2.39-1-2.92l-2.8-7.67a59.09,59.09,0,0,0-7.23-.32h-3a40.15,40.15,0,0,0-8,.47L622.45,330c-1.27,2.93-1.87,4.79-1.87,5.52a2.68,2.68,0,0,0,1.21,2.23c.79.61,2.44,1.08,4.89,1.45v1.25a67,67,0,0,0-7.6-.54c-2.13,0-4.44.12-6.94.33v-1.12a7.4,7.4,0,0,0,3.51-1.79,14.93,14.93,0,0,0,2.43-3.8q1.49-3,3-6.53c1-2.36,1.78-4.19,2.23-5.52l6.12-14.63c.76-1.74,1.54-3.59,2.35-5.5s1.55-3.86,2.28-5.79,1.24-3.49,1.57-4.67a1,1,0,0,1,.23-.72l1.28-.08c.79,2.82,1.64,5.54,2.58,8.14l8,21.5q3.1,8.07,4.69,11.87a27.35,27.35,0,0,0,2.76,5.49c.66.94,2,1.5,4.07,1.71v1.34c-2.08-.19-4.1-.29-6-.29C651.73,339.82,650.32,339.85,649,339.92Zm50,52.65a3,3,0,0,0-1,1.77,61.11,61.11,0,0,0-.72,9.09q-.21,6.76-.21,12.87,0,2.41,0,4.61t.11,4c0,1.17.09,2.24.17,3.23l-1.17-.05q-2-4.2-11.76-13.35l-10.61-9.89c-.37-.26-1.24-1-2.62-2.35s-3.14-2.93-5.26-4.9l-.37,17.33a46,46,0,0,0,.23,7.46,3.72,3.72,0,0,0,1.61,2.82,18,18,0,0,0,4.72,1.37,5.06,5.06,0,0,1-.1,1.08c-.3,0-1.21,0-2.71-.1s-2.49-.12-2.81-.12-1.34,0-3.09.12c-.3,0-.72,0-1.22.07l-2,.14a.86.86,0,0,1-.58-.14.64.64,0,0,1-.2-.53c0-.28.05-.45.15-.51a2.42,2.42,0,0,1,.62-.13A5.15,5.15,0,0,0,662,426a2.21,2.21,0,0,0,.89-1.18,11.45,11.45,0,0,0,.5-2.79c.1-1.28.16-2.9.19-4.91l.18-13.5a59.64,59.64,0,0,0-.16-6.58,6.56,6.56,0,0,0-1.26-3.48,5.12,5.12,0,0,0-3.57-1.63v-1.14l3.26.21a16,16,0,0,0,1.67,0l2.43-.06c1.12,1.43,2.45,2.94,4,4.56s3.23,3.32,5.12,5.16,3,2.88,3.23,3.13l16.68,15.84q.22-3.53.23-10.71v-5.47c0-2.9-.08-5.09-.22-6.55a8.46,8.46,0,0,0-.8-3.26,2.91,2.91,0,0,0-1.56-1.38,18,18,0,0,0-3.21-.73l.3-.8c.26,0,.73,0,1.38,0s1.18,0,1.77,0,1.26.07,2.06.14c.47,0,1,.05,1.48.05h1.25l3.58-.05.05,1A5.75,5.75,0,0,0,699,392.57Zm2.67-57.7a41,41,0,0,1-1.86,5.7,48.65,48.65,0,0,0-5.24-.36l-2.19-.07c-.67,0-1.45,0-2.34,0H663.27l-.08-1.18a13.75,13.75,0,0,0,3.27-1,3.32,3.32,0,0,0,1.53-1.86,14,14,0,0,0,.66-4c.09-1.74.15-4.29.15-7.6l.08-16.8c.05-3.79.05-6.66,0-8.65a15.89,15.89,0,0,0-.55-4.35,2.74,2.74,0,0,0-1.44-1.87,9.21,9.21,0,0,0-3.17-.53V291c3.22,0,5.31.06,6.3.1l2.49.07c4.28,0,7.1,0,8.43-.17l-.07,1.5a20.68,20.68,0,0,0-3.92.63,2.92,2.92,0,0,0-1.88,1.71,16.11,16.11,0,0,0-.5,4.18q-.15,3.38-.28,8.65c-.08,3.92-.15,7.51-.2,10.72s-.1,6.38-.1,9.54c0,2.88.1,5,.24,6.38a4.76,4.76,0,0,0,.75,2.58,4.82,4.82,0,0,0,2.16.75,58.78,58.78,0,0,0,6.44.21,39.58,39.58,0,0,0,9.05-.87,24.31,24.31,0,0,0,5.49-1.88,8,8,0,0,0,3.36-5.09l1.27.17C702.6,331.22,702.24,332.79,701.71,334.87ZM427.55,417.09a12,12,0,0,1,.36,1.15q-.93.07-2.16.08c-1.43,0-2.71,0-3.83-.09l-.09-.06a2.72,2.72,0,0,0,.16-.5,8.42,8.42,0,0,1,.28-.85c.15-.4.29-.81.43-1.22q.44-1.37,1.45-3.82c.4-.95.63-1.49.69-1.62l.16.28,1.43,3.63C426.49,414.27,426.87,415.27,427.55,417.09Zm1.62-207.57a26.09,26.09,0,0,1-6.18-.61q0-18.4.88-20.26c.24-.65,1.06-1.09,2.46-1.39a18.71,18.71,0,0,1,3.8-.44,11.66,11.66,0,0,1,6.89,2,13.25,13.25,0,0,1,4.17,4.89,12.73,12.73,0,0,1,1.35,5.43A9.76,9.76,0,0,1,441,205a8.91,8.91,0,0,1-3.71,3.09,16.2,16.2,0,0,1-4.21,1.17A28.29,28.29,0,0,1,429.17,209.52Zm215.07,194.4a21.81,21.81,0,0,1,1.27,7.41,16.4,16.4,0,0,1-1.9,8.22,12.29,12.29,0,0,1-4.84,4.94,12.8,12.8,0,0,1-6.19,1.61,14.44,14.44,0,0,1-8.25-2.66,19.06,19.06,0,0,1-6.23-7.05,19.8,19.8,0,0,1-2.32-9.36,16,16,0,0,1,1.89-7.89,13.22,13.22,0,0,1,11.69-6.93,13.85,13.85,0,0,1,6.2,1.46,16.13,16.13,0,0,1,5.18,4.11A19.43,19.43,0,0,1,644.24,403.92Zm-58.76-90.63a15.92,15.92,0,0,1-4.2,1.17,30,30,0,0,1-3.87.28,26.9,26.9,0,0,1-6.19-.62q0-18.42.87-20.28c.23-.63,1.05-1.09,2.47-1.38a18.15,18.15,0,0,1,3.8-.44,11.41,11.41,0,0,1,6.87,2,12.86,12.86,0,0,1,4.17,4.88,12.36,12.36,0,0,1,1.36,5.44,9.75,9.75,0,0,1-1.56,5.82A8.93,8.93,0,0,1,585.48,313.28Zm-214-105a57.15,57.15,0,0,1-9-.62c.28-.55.81-1.88,1.61-4l5.82-15c.52-1.24,1-2.44,1.47-3.63s1-2.51,1.68-3.94c.52,1,1.36,2.84,2.5,5.56s1.94,4.61,2.35,5.63l3.7,9.5a62.32,62.32,0,0,1,2.31,6.25c-2.27.13-4.81.19-7.67.19ZM357.87,414a10.94,10.94,0,0,1,.87,4.15,11.44,11.44,0,0,1-.44,3.47,9.27,9.27,0,0,1-1.07,2.05,8.56,8.56,0,0,1-1.93,2,8.79,8.79,0,0,1-2.7,1.4,10,10,0,0,1-3.11.49,7.42,7.42,0,0,1-2.42-.41,2.92,2.92,0,0,1-1.63-1.55q-.29-.89-.29-8.75v-3.57c0-.73,0-1.71,0-2.92,0-.19,0-.35,0-.49a3.13,3.13,0,0,1,.1-.72,1.52,1.52,0,0,1,.19-.22,6.2,6.2,0,0,1,2.42-.36,15.22,15.22,0,0,1,4.42.62,9.24,9.24,0,0,1,3.54,2A7.75,7.75,0,0,1,357.87,414ZM654,220a27,27,0,0,1-3.14-12.66,21.42,21.42,0,0,1,2.58-10.64,17.69,17.69,0,0,1,6.75-7,18,18,0,0,1,9-2.39,18.55,18.55,0,0,1,8.35,2,22.07,22.07,0,0,1,7,5.54,26.92,26.92,0,0,1,4.73,8.3,29.33,29.33,0,0,1,1.71,10,22.31,22.31,0,0,1-2.54,11.11,16.91,16.91,0,0,1-6.57,6.66,17.3,17.3,0,0,1-8.34,2.16,19.52,19.52,0,0,1-11.15-3.58A26,26,0,0,1,654,220Zm-13.29,95.52c.24.49.84,2,1.71,4.62q-2.51.16-5.68.16l-3.5.07a42.81,42.81,0,0,1-6.68-.45c.21-.42.6-1.4,1.18-3l4.31-11.11c.39-.91.74-1.81,1.1-2.7s.76-1.85,1.23-2.93c.37.75,1,2.13,1.85,4.14s1.42,3.38,1.73,4.16ZM525.64,409.23a34,34,0,0,1,1.28,3.42c-1.24.07-2.65.13-4.21.13l-2.59,0a31.72,31.72,0,0,1-5-.34c.15-.29.44-1,.87-2.2l3.19-8.24c.3-.66.55-1.34.82-2s.56-1.36.91-2.15c.28.56.74,1.56,1.38,3.06s1.05,2.52,1.29,3.08Z"/><path class="cls-1" d="M206.08,251.33a23.12,23.12,0,0,0,4.57,1V313.1h-4.57Zm4.57-99h-4.57v60.3a19.38,19.38,0,0,1,4.57-1Zm4.52,160.81h4.52V251.33a22.72,22.72,0,0,1-4.52,1Zm4.52-160.81h-4.52v59.31a19,19,0,0,1,4.52,1ZM140.33,234v4.52h53.16a18.63,18.63,0,0,1-1-4.52Zm0-9v4.52h52.24a18.47,18.47,0,0,1,1.06-4.52ZM249.2,192.32l-3.2-3.19-24.35,24.31a18.36,18.36,0,0,1,4,2.43ZM132,303.16l3.16,3.2,61.7-61.64a24.55,24.55,0,0,1-2.46-4ZM255.59,198.75l-3.25-3.25-23.5,23.56a18.78,18.78,0,0,1,2.49,3.92ZM138.32,309.59l3.24,3.17,62.36-62.39a17.74,17.74,0,0,1-3.91-2.48ZM246.81,275.4l3.2-3.16L225.76,248a22.83,22.83,0,0,1-3.91,2.46ZM136.88,159.08l-3.21,3.17L194.44,223a19.59,19.59,0,0,1,2.46-3.93ZM253.23,269l3.15-3.22-25-25a20.55,20.55,0,0,1-2.51,3.89Zm-110-116.39-3.22,3.22,60.1,60a25,25,0,0,1,3.86-2.47ZM154,376.38c.74-.06,1.77-.12,3-.2s2.68-.1,4.17-.1c1.88,0,3.86.1,5.9.3v-1.32c-2-.2-3.35-.77-4-1.69a28.83,28.83,0,0,1-2.71-5.36q-1.54-3.77-4.59-11.65L148,335.31c-.91-2.55-1.77-5.2-2.53-8l-1.26.08a1,1,0,0,0-.21.71c-.32,1.15-.85,2.68-1.53,4.57s-1.45,3.77-2.23,5.66-1.56,3.69-2.3,5.4l-6,14.33c-.46,1.29-1.19,3.1-2.19,5.4s-2,4.43-3,6.39a14,14,0,0,1-2.39,3.72,7.22,7.22,0,0,1-3.44,1.77v1.07c2.45-.2,4.71-.29,6.81-.29a64.93,64.93,0,0,1,7.44.51v-1.24a11.67,11.67,0,0,1-4.8-1.4,2.63,2.63,0,0,1-1.17-2.19c0-.73.61-2.53,1.82-5.43l2.74-6.91a38.84,38.84,0,0,1,7.85-.47h3a58.38,58.38,0,0,1,7.08.32l2.78,7.52c.22.52.56,1.46,1,2.84a10.63,10.63,0,0,1,.69,3.14,1.67,1.67,0,0,1-1,1.64,10.91,10.91,0,0,1-2.76.79v1.24Zm-12.47-36.21c.34-.86.76-1.8,1.22-2.86.38.73,1,2.06,1.82,4s1.4,3.33,1.7,4.08l2.67,6.87c.25.49.82,2,1.69,4.53-1.66.11-3.5.15-5.58.15l-3.44.08a42.63,42.63,0,0,1-6.52-.44c.2-.41.6-1.38,1.16-2.92l4.22-10.88C140.88,341.93,141.23,341,141.56,340.18ZM207.81,353c-2.94.06-6.15.11-9.58.13l-.16,1.6a16.36,16.36,0,0,1,2.35-.14,13.1,13.1,0,0,1,4.79.6,3,3,0,0,1,1.7,2.4,37.42,37.42,0,0,1,.36,6.36c0,3.1,0,5-.12,5.78a3.14,3.14,0,0,1-.52,1.66,9.85,9.85,0,0,1-3.86,2.31,19.21,19.21,0,0,1-7.25,1.2,20,20,0,0,1-9.25-2.13,22,22,0,0,1-7.16-5.74,25.68,25.68,0,0,1-4.36-7.67,22.77,22.77,0,0,1,1.11-18.44,20.81,20.81,0,0,1,7.32-8.22,19.76,19.76,0,0,1,11-3.12q6.56,0,10.34,2.83a15.28,15.28,0,0,1,5.17,6,2.89,2.89,0,0,0,.36.73c.05.08.21.12.42.12s.45-.18.45-.57a41.39,41.39,0,0,0-.5-4.85,44.4,44.4,0,0,1-.49-4.65c0-.94-.19-1.42-.54-1.42a9.58,9.58,0,0,0-2.28,1.7,7.4,7.4,0,0,1-2.1-.73c-.27-.09-.89-.25-1.84-.46s-2-.39-3.31-.57a29.89,29.89,0,0,0-3.95-.27,34.56,34.56,0,0,0-10.56,1.63,27.86,27.86,0,0,0-9.2,4.86,23.21,23.21,0,0,0-8.74,18.43,25.38,25.38,0,0,0,1.54,8.65,23.4,23.4,0,0,0,13.31,13.7,31.3,31.3,0,0,0,12,2.13c1.51,0,2.84,0,4-.08s2.62-.22,4.48-.45,3.84-.54,5.88-.92c3.07-.61,4.81-.94,5.2-1l.38-.86a4.27,4.27,0,0,1-1.07-1.18,4.79,4.79,0,0,1-.46-2q-.16-1.43-.16-4.74c0-3,0-5.07,0-6.16s.06-1.91.09-2.47a4.42,4.42,0,0,1,.26-1.3,2,2,0,0,1,.69-1,10.08,10.08,0,0,1,1.84-.72v-1.43C213.32,352.82,210.77,352.94,207.81,353Zm14.58-21.45a8.89,8.89,0,0,1,1.68,4.6,82.12,82.12,0,0,1,.22,8.73L224,362.72q0,4-.24,6.49a14,14,0,0,1-.66,3.68,2.83,2.83,0,0,1-1.17,1.56,6.5,6.5,0,0,1-2.36.61,2.14,2.14,0,0,0-.84.18c-.12.07-.17.3-.17.67a.88.88,0,0,0,.24.7,1.24,1.24,0,0,0,.77.2l2.61-.18c.68-.06,1.21-.09,1.61-.11,2.35-.1,3.71-.14,4.11-.14s1.65,0,3.71.14,3.18.14,3.57.14a5.29,5.29,0,0,0,.16-1.42,24.17,24.17,0,0,1-6.24-1.82c-1.1-.59-1.8-1.84-2.12-3.73a57.85,57.85,0,0,1-.3-9.88l.49-22.91q4.19,3.89,6.94,6.46c1.84,1.73,3,2.76,3.46,3.1l14,13.1q13,12.08,15.55,17.66l1.54.07c-.1-1.33-.18-2.75-.23-4.31s-.1-3.28-.13-5.23-.07-4-.07-6.1c0-5.38.09-11.06.28-17a79.63,79.63,0,0,1,1-12,4,4,0,0,1,1.39-2.36,7.81,7.81,0,0,1,3.22-1.05L274,328l-4.76.06h-1.64c-.67,0-1.32,0-1.93-.06-1-.1-2-.17-2.74-.2s-1.54,0-2.32,0a18.15,18.15,0,0,0-1.83.06l-.41,1.07a23.58,23.58,0,0,1,4.26,1,3.84,3.84,0,0,1,2,1.83A11.19,11.19,0,0,1,265.8,336c.18,1.94.28,4.84.28,8.67v7.21c0,6.34-.12,11.06-.3,14.18l-22.06-20.94c-.33-.34-1.75-1.71-4.25-4.15s-4.77-4.7-6.78-6.83-3.79-4.12-5.29-6l-3.22.08c-.84,0-1.58,0-2.19,0l-4.3-.29v1.54A6.64,6.64,0,0,1,222.39,331.56Zm-98.54,71a2.85,2.85,0,0,1,1.52,1.45,7.11,7.11,0,0,1,.53,3.1q0,.5-.1,1.94l-.6,10.45a41.75,41.75,0,0,1-.46,4.38,3.08,3.08,0,0,1-1,1.87,6.17,6.17,0,0,1-2.72,1l0,.58.92,0,1.3,0,1,0h.77l2.42,0a23.56,23.56,0,0,1,2.84.16l0-.66a5.81,5.81,0,0,1-3.05-.88,2.94,2.94,0,0,1-.65-2.18q0-5.06.32-9.6t.66-7.95q4.32,8.33,6.91,13.25a38.32,38.32,0,0,1,2,4.32c.47,1.26.87,2.41,1.2,3.46l.62,0c.27-.84.54-1.58.81-2.24s.83-1.92,1.69-3.78q.62-1.32,1.6-3.2l2-3.86q1-2,2.3-4.3c.84-1.54,1.45-2.7,1.85-3.48a59.72,59.72,0,0,1,.54,6.4l.16,5.4q0,.94,0,2.46a14.78,14.78,0,0,1-.32,3.57,2.71,2.71,0,0,1-1,1.66,8,8,0,0,1-2.4.87l0,.76a31.11,31.11,0,0,1,3.8-.2l2.66,0,3.44,0v-.74a8.51,8.51,0,0,1-1.84-.21,1.78,1.78,0,0,1-1-.7,3.33,3.33,0,0,1-.51-1.47c-.09-.62-.16-1.57-.23-2.82,0-1.08-.07-2-.1-2.71s-.05-1.32-.07-1.78,0-.85,0-1.16,0-.63,0-1l-.12-5.56q0-2.76,0-3.86a4.05,4.05,0,0,1,.43-1.68,1.82,1.82,0,0,1,1-.81,11,11,0,0,1,2.18-.41l0-.74c-.6,0-1.4,0-2.42,0-1.23,0-2.36,0-3.4,0q-.5,1.1-1.48,3t-3.39,6.38L141.72,416q-2,3.94-2.94,5.44l-3.7-6.91c-1-1.84-2-3.77-3.06-5.8s-1.76-3.46-2.12-4.27-.75-1.81-1.19-3h-1l-.72,0c-.63,0-1.24,0-1.84-.06l-1.94-.14-1.26-.05c-.24,0-.49,0-.74,0l-.08.76A9.79,9.79,0,0,1,123.86,402.54ZM176,424.3a5.52,5.52,0,0,1-2.73,1.48,20.87,20.87,0,0,1-4.93.46c-.84,0-1.54,0-2.1-.07s-1-.09-1.29-.14-.62-.11-1-.19l-.86-.22a41.9,41.9,0,0,1-.36-8l.08-2.84a24.59,24.59,0,0,1,3.61-.2,40.47,40.47,0,0,1,5,.2,2.61,2.61,0,0,1,1.89.92,5.12,5.12,0,0,1,.55,2.56h.7q0-2.12,0-3.76t0-3.72l-.58,0a11.83,11.83,0,0,1-.62,1.75,1.44,1.44,0,0,1-.59.71,4.39,4.39,0,0,1-1.21.24q-1.58.16-5.82.16c-1.64,0-2.62,0-2.94,0,0,.08,0-.52,0-1.8s0-2.42,0-3.4a53.32,53.32,0,0,1,.36-5.58,49.38,49.38,0,0,1,6.14-.4,19,19,0,0,1,4.2.4c1.17.27,1.75.88,1.75,1.86,0,.07,0,.31-.08.74s-.08.68-.08.76.17.3.5.3.49-.57.66-1.72.29-2.29.36-3.44q-4.37.16-6.53.16H157.3a2.72,2.72,0,0,0,0,.52,5.09,5.09,0,0,1,1.82.6,2,2,0,0,1,.65,1.38,33.66,33.66,0,0,1,.23,4l.14,6.36q0,.62,0,3.1c0,1.66-.11,3.14-.18,4.47s-.15,2.25-.23,2.75a6.06,6.06,0,0,1-.21,1.05,1.09,1.09,0,0,1-.33.49,2.33,2.33,0,0,1-.87.37l-1.27.31,0,.68c.76,0,2-.08,3.58-.14s3-.09,4.17-.11l3,0,1.22,0c.94,0,1.83,0,2.66,0,1.37,0,2.44,0,3.2,0s1.36,0,1.8.09a15.7,15.7,0,0,0,1-2.61,31.39,31.39,0,0,0,.7-3.45h-.62A8.37,8.37,0,0,1,176,424.3Zm-9.37-24.73,5.76-7.12h-2.79l-3.94,7.12Zm14.92,2.69a6.1,6.1,0,0,1,1.6,1.19,32.15,32.15,0,0,1,2.55,2.85q1.58,1.94,4.44,5.64l1.88,2.34-.3.42c-.14.21-.35.49-.61.83a4.7,4.7,0,0,1-.49.59l-2.36,3q-2.27,3-3.53,4.37a12.44,12.44,0,0,1-2.47,2.2,7,7,0,0,1-2.82,1l0,.62,1.25,0,2.3-.06,1.25,0,1.3,0c1.25,0,2.32,0,3.2.08v-.7a7.5,7.5,0,0,1-2-.5,1.17,1.17,0,0,1-.78-1.14,2.56,2.56,0,0,1,.38-1.17,19.74,19.74,0,0,1,1.18-1.81q4.06-5.52,5.24-6.84l2.17,2.74q.86,1.1,3.55,4.8a9.49,9.49,0,0,1,.81,1.4,3.2,3.2,0,0,1,.4,1.31c0,.3-.21.54-.63.7a10.3,10.3,0,0,1-1.87.47l.12.76q3-.16,4.92-.16c.76,0,1.66,0,2.7.08a17.36,17.36,0,0,1,1.8.08l-.08-.76a7,7,0,0,1-1.74-.47,4.72,4.72,0,0,1-1.3-1.13q-.75-.87-2.4-3L194.46,413a6.68,6.68,0,0,0,.51-.66l.59-.8,1.36-1.84,1.56-2.07c1-1.21,1.72-2.16,2.29-2.84a13.71,13.71,0,0,1,1.49-1.57,4.85,4.85,0,0,1,1.32-.82,6.31,6.31,0,0,1,1.7-.37v-.66h-4.14l-2.27-.08-2.18-.08-.08.68a6.12,6.12,0,0,1,2,.38,1.16,1.16,0,0,1,.69,1.18,5.67,5.67,0,0,1-1.14,2.73q-1.15,1.74-4.33,6l-3.62-4.52-1.38-1.83c-.46-.62-.87-1.21-1.22-1.78a2.83,2.83,0,0,1-.53-1.23c0-.48.7-.72,2.1-.72l-.12-.78q-1.44.12-4,.12a44.13,44.13,0,0,1-5.08-.24l0,.68A5.65,5.65,0,0,1,181.57,402.26Zm28.91.23a1.72,1.72,0,0,1,1.12,1,7.77,7.77,0,0,1,.31,2.23q.2,5.66.2,8.68,0,3.34-.11,6.35a15.44,15.44,0,0,1-.51,4.09,2,2,0,0,1-1,1.22,8.54,8.54,0,0,1-2.92.5l0,.76,1,0,1.77,0,1.57,0h2.57l1.37,0,1.72,0,1.11,0,.08-.76a8.63,8.63,0,0,1-2.58-.31,1.43,1.43,0,0,1-1-.87,8.1,8.1,0,0,1-.22-2c0-1.16-.07-2.25-.07-3.27s0-3.46,0-7.3q0-8.37.66-9.63a1.6,1.6,0,0,1,1-.75,9.92,9.92,0,0,1,2.4-.19v-.94l-3.46.16-2.08.08c-.47,0-1.38,0-2.74-.08l-2.82-.16v.86A8.82,8.82,0,0,1,210.48,402.49Zm33.77,19.11c0-.24-.13-.36-.38-.36s-.32.19-.52.58a15.27,15.27,0,0,1-1.57,2.37,6.65,6.65,0,0,1-2.23,1.7,8,8,0,0,1-3.58.71,10.08,10.08,0,0,1-3.21-.64,12.14,12.14,0,0,1-3.64-2.08,11.11,11.11,0,0,1-3-3.91,13.46,13.46,0,0,1-1.19-5.89,14.64,14.64,0,0,1,1.35-6.49,9.58,9.58,0,0,1,8.9-5.62,11,11,0,0,1,4.34.92,5.92,5.92,0,0,1,2.7,1.8,3.71,3.71,0,0,1,.34,1.72,1.15,1.15,0,0,0,.12.61.64.64,0,0,0,.48.25,29.55,29.55,0,0,1,.74-3.82l.3-1.14a.37.37,0,0,0-.26-.16l-.33,0-.41.08a6.68,6.68,0,0,1-1.8-.38,14.93,14.93,0,0,0-5.36-1,17.38,17.38,0,0,0-6.87,1.42,12.83,12.83,0,0,0-5.48,4.43,12.31,12.31,0,0,0-2.15,7.36,13.27,13.27,0,0,0,1.16,5.67,12.57,12.57,0,0,0,3.14,4.23,13.71,13.71,0,0,0,4.46,2.61,14.79,14.79,0,0,0,5,.88,19.4,19.4,0,0,0,3.82-.35q1.76-.35,3.92-1,.76-2.7.86-3A9.86,9.86,0,0,0,244.25,421.6Zm3.67-2.69a14.43,14.43,0,0,0,2.58,4.37,12.75,12.75,0,0,0,4.19,3.24,12.4,12.4,0,0,0,5.52,1.2,14.08,14.08,0,0,0,7.18-1.84,13.43,13.43,0,0,0,6.73-11.65A13.09,13.09,0,0,0,273,408.8a12.72,12.72,0,0,0-3-4.24,13.91,13.91,0,0,0-4.26-2.69,12.82,12.82,0,0,0-4.82-1,13.62,13.62,0,0,0-6.78,1.8,14.09,14.09,0,0,0-5.13,4.88,12.44,12.44,0,0,0-1.93,6.73A13.28,13.28,0,0,0,247.92,418.91Zm3.47-11.69a9.3,9.3,0,0,1,3.54-3.65,9.42,9.42,0,0,1,4.72-1.25,9.79,9.79,0,0,1,4.38,1,11.58,11.58,0,0,1,3.67,2.9,13.88,13.88,0,0,1,2.48,4.35,15.36,15.36,0,0,1,.89,5.24,11.63,11.63,0,0,1-1.34,5.82,8.76,8.76,0,0,1-3.43,3.5,9.09,9.09,0,0,1-4.37,1.13,10.24,10.24,0,0,1-5.84-1.87,13.49,13.49,0,0,1-4.4-5,14,14,0,0,1-1.64-6.62A11.28,11.28,0,0,1,251.39,407.22Z"/></svg>